<?xml version="1.0" encoding="utf-8"?>
<!-- Generator: Adobe Illustrator 26.0.1, SVG Export Plug-In . SVG Version: 6.00 Build 0)  -->
<svg version="1.1" xmlns="http://www.w3.org/2000/svg" xmlns:xlink="http://www.w3.org/1999/xlink" x="0px" y="0px"
	 viewBox="0 0 465.3 465.9" style="enable-background:new 0 0 465.3 465.9;" xml:space="preserve">
<style type="text/css">
	.st0{fill:#FFF100;}
	.st1{filter:url(#Adobe_OpacityMaskFilter);}
	.st2{fill:#FFFFFF;}
	.st3{opacity:0.5;mask:url(#SVGID_1_);fill:#FFA300;}
	.st4{fill:#FFC000;}
</style>
<g id="Ebene_2">
	<path class="st0" d="M450,316c9.8-25.8,15.2-53.7,15.2-83c0-35.3-7.9-68.7-21.9-98.7l-109.6,35.2l82.6-79.3
		C373.7,35.3,307.1,0,232.3,0c-13.8,0-27.3,1.2-40.5,3.5l2,72l-31.6-64.8c-31.4,9.9-84,47.5-84,47.5l6.3,37.1H44.3
		C19.4,129.2,3.5,170.1,0,214.5L79.6,233L0.9,260.4c5.2,44.1,22.6,84.4,48.9,117.5l25-4.4l-6.9,24.6c35.5,35.4,82.3,59.3,134.6,66
		l17.3-83.6l17.6,85.4c16.4-0.3,32.3-2.4,47.7-5.9l-8.3-55.5l22.9,51.6c56.8-17.1,104.4-55.3,133.8-105.5l-54.7-48.1L450,316z
		 M240.3,323.5c-48.3,0-87.5-37.8-87.5-84.5c0-46.7,39.2-84.5,87.5-84.5s87.5,37.8,87.5,84.5C327.8,285.7,288.6,323.5,240.3,323.5z"
		/>
	<defs>
		<filter id="Adobe_OpacityMaskFilter" filterUnits="userSpaceOnUse" x="0" y="0" width="465.3" height="465.9">
			<feColorMatrix  type="matrix" values="1 0 0 0 0  0 1 0 0 0  0 0 1 0 0  0 0 0 1 0"/>
		</filter>
	</defs>
	<mask maskUnits="userSpaceOnUse" x="0" y="0" width="465.3" height="465.9" id="SVGID_1_">
		<g class="st1">
			<polygon class="st2" points="334.8,168.5 322.8,178.5 457.8,160.5 446.8,128.5 			"/>
			<polygon class="st2" points="135.8,17.5 195.8,108.5 193.8,72.5 164.8,5.5 			"/>
			<polygon class="st2" points="25.8,113.5 86.8,113.5 83.8,93.5 47.8,77.5 30.1,92 			"/>
			<polygon class="st2" points="77.8,233.5 95.8,236.5 -3.2,285.5 -5.2,252.5 51.8,237.5 			"/>
			<polygon class="st2" points="74.8,373.5 88.8,371.5 81.8,414.2 61.8,399.5 			"/>
			<polygon class="st2" points="219.8,380.5 220.8,360.5 259.8,472.5 238.3,477 			"/>
			<polygon class="st2" points="266.8,468.5 269.8,386.5 276.8,405.5 291.8,466.5 			"/>
			<path class="st2" d="M378.8,302.5l-23-4l67,84c0,0,23-33,22-35S378.8,302.5,378.8,302.5z"/>
		</g>
	</mask>
	<path class="st3" d="M450,316c9.8-25.8,15.2-53.7,15.2-83c0-35.3-7.9-68.7-21.9-98.7l-109.6,35.2l82.6-79.3
		C373.7,35.3,307.1,0,232.3,0c-13.8,0-27.3,1.2-40.5,3.5l2,72l-31.6-64.8c-31.4,9.9-84,47.5-84,47.5l6.3,37.1H44.3
		C19.4,129.2,3.5,170.1,0,214.5L79.6,233L0.9,260.4c5.2,44.1,22.6,84.4,48.9,117.5l25-4.4l-6.9,24.6c35.5,35.4,82.3,59.3,134.6,66
		l17.3-83.6l17.6,85.4c16.4-0.3,32.3-2.4,47.7-5.9l-8.3-55.5l22.9,51.6c56.8-17.1,104.4-55.3,133.8-105.5l-54.7-48.1L450,316z
		 M240.3,323.5c-48.3,0-87.5-37.8-87.5-84.5c0-46.7,39.2-84.5,87.5-84.5s87.5,37.8,87.5,84.5C327.8,285.7,288.6,323.5,240.3,323.5z"
		/>
</g>
<g id="Ebene_4">
	<g>
		<path class="st4" d="M240.3,153c-8.9,0-17.5,1.3-25.6,3.8c5.8-1.5,11.9-2.3,18.1-2.3c40.3,0,73,32.7,73,73s-32.7,73-73,73
			s-73-32.7-73-73c0-20.9,8.8-39.8,22.9-53.1c-18.1,15.7-29.4,38.6-29.4,64.1c0,47.2,39,85.5,87,85.5s87-38.3,87-85.5
			S288.3,153,240.3,153z"/>
		<path class="st4" d="M182.7,174.4c9.1-7.9,20-14,31.9-17.6C202.5,159.9,191.6,166,182.7,174.4z"/>
	</g>
</g>
<g id="Ebene_5">
</g>
</svg>
